<?xml version="1.0" standalone="no"?>
<!DOCTYPE svg PUBLIC "-//W3C//DTD SVG 20010904//EN"
 "http://www.w3.org/TR/2001/REC-SVG-20010904/DTD/svg10.dtd">
<svg version="1.0" xmlns="http://www.w3.org/2000/svg"
 width="25" height="25" viewBox="0 0 512.000000 512.000000"
 preserveAspectRatio="xMidYMid meet">

<g transform="translate(0.000000,512.000000) scale(0.100000,-0.100000)"
fill="currentColor" stroke="none">
<path d="M3225 5035 c-5 -2 -22 -6 -37 -9 -39 -9 -98 -64 -119 -111 -19 -41
-24 -101 -11 -121 5 -7 65 17 180 74 l173 85 -23 25 c-13 13 -34 30 -48 37
-27 13 -98 26 -115 20z"/>
<path d="M4355 4919 c-86 -10 -169 -25 -260 -45 -71 -16 -208 -54 -213 -59 -5
-5 213 -435 220 -435 5 0 188 90 408 200 260 130 403 207 410 221 18 34 4 68
-36 85 -89 37 -355 54 -529 33z"/>
<path d="M3295 4722 c-166 -85 -256 -136 -269 -154 -10 -14 -21 -48 -23 -75
-5 -45 2 -61 123 -303 88 -174 138 -261 156 -274 16 -12 48 -21 80 -23 51 -3
63 2 303 124 359 184 352 163 179 519 -116 241 -137 274 -186 300 -62 32 -98
21 -363 -114z"/>
<path d="M2784 4247 c-255 -203 -436 -409 -530 -603 -40 -84 -44 -126 -12
-148 12 -9 28 -16 34 -16 13 0 824 397 824 403 0 12 -213 437 -218 437 -4 -1
-48 -33 -98 -73z"/>
<path d="M3725 3873 c-93 -47 -171 -86 -173 -87 -1 -2 216 -441 482 -977 297
-598 495 -985 512 -1003 56 -56 138 -71 212 -41 49 21 81 52 103 100 42 92 65
39 -468 1113 -267 540 -489 982 -492 981 -3 0 -82 -39 -176 -86z"/>
<path d="M1820 3769 c-407 -53 -764 -222 -1058 -503 -463 -443 -665 -1104
-526 -1725 136 -606 551 -1095 1124 -1324 225 -90 431 -128 685 -128 242 0
428 33 652 117 647 242 1106 838 1182 1536 79 723 -288 1433 -933 1801 l-84
48 -248 -124 c-137 -68 -260 -127 -274 -131 -21 -5 -10 -11 60 -30 653 -178
1085 -764 1057 -1431 -16 -365 -159 -688 -417 -946 -209 -207 -458 -339 -750
-395 -130 -24 -370 -24 -500 0 -658 125 -1134 669 -1167 1335 -34 688 443
1305 1127 1456 46 10 144 19 254 22 l178 6 -31 19 c-51 33 -86 102 -86 173 0
50 7 75 42 148 l42 87 -132 -1 c-73 -1 -161 -5 -197 -10z"/>
<path d="M1920 3194 c-172 -22 -306 -62 -450 -134 -354 -178 -607 -518 -675
-908 -20 -110 -19 -326 0 -438 54 -309 233 -601 484 -789 492 -370 1178 -335
1623 83 262 247 400 562 401 917 1 159 -12 248 -55 385 -142 446 -513 777
-971 865 -83 16 -292 27 -357 19z m137 -436 c18 -16 23 -32 23 -69 l0 -47 88
-4 c106 -5 178 -34 250 -102 161 -151 168 -400 16 -557 l-44 -45 43 -46 c148
-154 148 -398 -1 -547 -64 -64 -134 -99 -227 -114 l-75 -12 0 -41 c0 -51 -23
-82 -67 -90 -47 -9 -83 29 -83 91 l0 45 -194 0 c-180 0 -195 1 -220 21 -19 15
-26 30 -26 54 0 51 27 77 88 83 l52 5 -2 551 -3 551 -45 3 c-56 4 -90 33 -90
77 0 66 9 69 207 75 l178 5 5 52 c4 36 12 57 25 67 29 22 75 19 102 -6z m-668
-765 c32 -27 37 -73 11 -106 -21 -26 -24 -27 -130 -27 -105 0 -109 1 -129 26
-28 35 -26 69 4 99 22 23 31 25 123 25 80 0 104 -3 121 -17z m1546 -8 c31 -30
32 -71 3 -102 -20 -21 -30 -23 -128 -23 -114 0 -129 6 -144 57 -8 24 15 78 36
86 7 3 57 6 111 6 91 1 100 -1 122 -24z"/>
<path d="M1830 2251 l0 -241 176 0 c213 0 241 7 310 75 119 119 88 299 -66
381 -30 16 -63 19 -227 22 l-193 4 0 -241z"/>
<path d="M1838 1854 c-5 -4 -8 -113 -8 -241 l0 -234 198 3 199 3 49 30 c164
102 144 345 -35 423 -27 12 -82 17 -216 20 -99 2 -183 1 -187 -4z"/>
</g>
</svg>
