<?xml version="1.0" standalone="no"?>
<!DOCTYPE svg PUBLIC "-//W3C//DTD SVG 20010904//EN"
 "http://www.w3.org/TR/2001/REC-SVG-20010904/DTD/svg10.dtd">
<svg version="1.0" xmlns="http://www.w3.org/2000/svg"
 width="512.000000pt" height="512.000000pt" viewBox="0 0 512.000000 512.000000"
 preserveAspectRatio="xMidYMid meet">

<g transform="translate(0.000000,512.000000) scale(0.100000,-0.100000)"
fill="currentColor" stroke="none">
<path d="M2400 4274 c-725 -111 -1248 -615 -1331 -1284 l-12 -96 -91 -23
c-330 -84 -608 -314 -726 -598 -61 -146 -73 -212 -73 -388 0 -141 3 -172 26
-260 100 -372 385 -659 762 -763 l100 -27 1552 -3 c1501 -2 1556 -2 1647 17
355 72 629 353 691 706 79 455 -206 891 -653 1000 -54 13 -128 27 -166 30
l-68 7 7 81 c18 207 -1 393 -61 576 -180 549 -674 935 -1315 1026 -125 18
-165 17 -289 -1z m224 -898 c18 -8 46 -31 62 -52 l29 -37 3 -635 2 -635 103
100 c118 116 156 135 229 113 52 -15 105 -69 114 -115 16 -85 11 -91 -259
-363 -139 -140 -264 -260 -279 -268 -32 -17 -101 -18 -131 -3 -31 16 -515 499
-533 531 -8 15 -14 49 -14 75 0 110 111 183 216 143 15 -6 74 -57 131 -112
l103 -102 0 621 c0 416 4 631 11 650 32 84 128 125 213 89z"/>
</g>
</svg>
