<?xml version="1.0" standalone="no"?>
<!DOCTYPE svg PUBLIC "-//W3C//DTD SVG 20010904//EN"
 "http://www.w3.org/TR/2001/REC-SVG-20010904/DTD/svg10.dtd">
<svg version="1.0" xmlns="http://www.w3.org/2000/svg"
 width="25" height="25" viewBox="0 0 1024.000000 1024.000000"
 preserveAspectRatio="xMidYMid meet">

<g transform="translate(0.000000,1024.000000) scale(0.100000,-0.100000)"
fill="currentColor" stroke="none">
<path d="M5430 8010 c-705 -66 -1384 -318 -1895 -704 l-89 -68 -49 53 -50 53
-26 -33 -26 -32 -119 121 c-66 66 -121 119 -122 118 -59 -53 -493 -495 -492
-500 2 -4 54 -59 116 -121 61 -63 112 -119 112 -124 0 -5 -18 -27 -40 -48
l-40 -39 52 -53 51 -52 -48 -82 c-81 -140 -86 -150 -162 -303 -160 -320 -290
-695 -352 -1011 -60 -308 -74 -451 -74 -755 0 -231 8 -334 42 -560 9 -58 11
-53 51 220 31 214 95 489 160 695 104 327 304 749 510 1075 66 105 193 296
219 330 l20 25 38 -37 c22 -21 42 -38 45 -38 3 0 37 31 74 69 l69 70 630 -625
c539 -534 636 -626 670 -635 70 -19 266 -100 378 -155 222 -112 424 -245 602
-396 54 -46 105 -89 114 -95 15 -11 25 -3 80 62 l63 75 159 0 c175 0 191 4
244 59 28 30 29 37 35 144 4 72 12 123 22 142 14 27 14 35 2 64 -18 42 -18 39
9 43 20 3 22 9 25 68 4 108 5 110 62 110 38 0 55 5 71 21 31 31 21 78 -36 174
-68 115 -105 195 -105 231 0 18 16 64 37 103 l36 71 187 0 188 0 31 29 c43 40
44 97 2 143 l-29 33 -1162 3 -1161 2 -24 -24 c-45 -45 -26 -123 41 -167 16
-10 39 -19 51 -19 23 0 25 -5 38 -145 3 -33 8 -73 12 -89 l5 -29 -48 40 c-27
21 -90 72 -141 112 -51 41 -103 90 -116 110 -53 80 -60 169 -19 251 l20 42
-241 246 c-372 381 -354 361 -337 376 8 6 37 35 64 64 l49 51 -47 51 c-26 28
-44 54 -41 59 11 19 194 161 320 248 605 420 1285 652 2122 723 67 5 224 10
350 11 l228 1 -60 19 c-143 45 -404 93 -640 119 -133 15 -595 21 -715 10z"/>
<path d="M3710 7855 c-14 -17 -10 -47 8 -51 7 -1 8 0 2 3 -15 7 -12 29 6 47 8
9 11 16 6 16 -5 0 -15 -7 -22 -15z"/>
<path d="M3750 7867 c0 -4 9 -16 20 -27 11 -11 20 -16 20 -12 0 5 -9 17 -20
27 -11 10 -20 15 -20 12z"/>
<path d="M3346 7841 c-4 -5 1 -8 9 -7 21 3 31 16 12 16 -9 0 -18 -4 -21 -9z"/>
<path d="M3355 7810 c4 -6 11 -8 16 -5 14 9 11 15 -7 15 -8 0 -12 -5 -9 -10z"/>
<path d="M7189 7548 c-6 -11 -5 -77 1 -68 6 9 11 7 18 -6 6 -10 13 -16 16 -13
4 3 -3 16 -14 29 -24 28 -25 36 -5 44 8 3 15 1 15 -5 0 -6 4 -8 9 -4 5 3 13 0
17 -6 3 -6 0 -15 -7 -20 -11 -7 -10 -9 4 -9 28 0 21 39 -9 50 -25 10 -43 13
-45 8z"/>
<path d="M5674 7475 c-9 -23 3 -45 25 -45 10 0 21 7 25 15 8 23 -4 45 -25 45
-11 0 -22 -7 -25 -15z"/>
<path d="M6131 7461 c-42 -42 -16 -111 42 -111 33 0 67 32 67 63 -1 55 -71 86
-109 48z"/>
<path d="M6827 7223 l-64 -88 71 -26 c204 -74 336 -219 387 -425 8 -32 31 -72
64 -114 206 -259 358 -616 424 -1003 108 -624 -32 -1285 -374 -1762 -48 -66
-54 -80 -43 -94 7 -9 55 -62 107 -118 l94 -102 30 37 c102 126 260 408 335
597 90 226 157 493 183 725 17 156 15 481 -5 630 -87 656 -396 1227 -886 1641
-80 67 -241 189 -250 189 -5 0 -37 -39 -73 -87z"/>
<path d="M5515 7144 c-58 -9 -230 -46 -242 -52 -6 -4 52 -7 130 -8 122 0 156
-4 241 -27 176 -48 293 -112 421 -227 36 -33 64 -60 62 -60 -3 0 -35 20 -72
45 -207 139 -464 217 -725 219 -104 1 -137 -3 -195 -21 -60 -20 -174 -80 -164
-87 2 -1 55 2 118 8 148 13 321 -4 468 -45 192 -53 417 -181 529 -300 44 -46
128 -159 120 -159 -3 0 -29 18 -58 40 -29 23 -129 79 -223 125 -180 89 -329
141 -496 171 -121 22 -407 25 -539 5 -116 -18 -130 -29 -200 -175 -53 -111
-85 -229 -94 -348 l-6 -78 960 -2 c528 -2 960 0 960 3 0 3 -11 16 -25 29 -40
38 -94 124 -117 188 -16 44 -21 82 -22 167 -1 99 2 117 27 175 15 36 29 69 30
74 3 14 -171 153 -253 202 -91 54 -205 99 -303 120 -72 15 -276 26 -332 18z"/>
<path d="M7679 7138 c-8 -19 -4 -55 7 -66 17 -16 17 -12 4 22 -8 21 -7 24 7
19 12 -5 14 -3 8 7 -5 8 -4 11 3 6 6 -4 8 -14 5 -24 -6 -15 -5 -16 12 -2 17
14 18 13 11 -5 -6 -16 -5 -18 6 -7 18 18 -2 46 -36 50 -14 2 -27 2 -27 0z"/>
<path d="M6615 6896 c-135 -62 -218 -256 -186 -434 39 -220 199 -358 372 -321
108 23 178 81 227 188 35 75 43 237 17 327 -32 111 -101 199 -190 240 -69 33
-171 33 -240 0z m191 -141 c94 -39 144 -182 110 -314 -20 -80 -38 -105 -91
-131 -79 -38 -152 -5 -200 91 -64 124 -29 305 66 352 42 21 70 21 115 2z"/>
<path d="M7940 6855 c-7 -8 -10 -22 -6 -30 7 -20 42 -19 50 1 8 22 8 22 -13
33 -14 8 -22 7 -31 -4z"/>
<path d="M2156 6824 c-20 -19 -20 -38 -1 -54 9 -8 15 -9 15 -2 0 6 -4 14 -10
17 -5 3 -10 11 -10 17 0 6 7 5 17 -3 9 -8 14 -9 10 -2 -4 6 0 19 9 27 13 14
13 16 0 16 -8 0 -22 -7 -30 -16z"/>
<path d="M2207 6823 c-4 -3 -7 -13 -7 -22 1 -13 3 -13 11 2 11 19 8 33 -4 20z"/>
<path d="M4375 6804 c-19 -20 -16 -63 6 -77 26 -16 68 0 75 29 12 48 -46 83
-81 48z"/>
<path d="M2334 6512 c-57 -38 -27 -132 43 -132 62 0 94 65 57 118 -11 16 -25
22 -52 22 -20 0 -42 -4 -48 -8z"/>
<path d="M1930 6275 c-12 -15 -6 -35 11 -35 6 0 7 5 3 11 -3 6 -1 15 6 19 7 5
8 10 2 14 -5 3 -15 -1 -22 -9z"/>
<path d="M7270 6091 c-15 -29 -13 -39 16 -57 24 -16 26 -16 46 4 31 30 18 72
-22 72 -19 0 -33 -7 -40 -19z"/>
<path d="M2142 6057 c-59 -63 27 -148 88 -87 39 39 11 110 -43 110 -13 0 -33
-10 -45 -23z"/>
<path d="M3437 5720 c-3 -8 -8 -33 -12 -55 -4 -22 -20 -68 -37 -103 -38 -80
-82 -115 -198 -158 -22 -8 -29 -14 -20 -17 121 -38 180 -83 223 -170 14 -29
29 -77 33 -105 8 -59 19 -60 27 -2 7 54 60 164 94 196 33 30 90 61 147 79 23
7 32 13 21 14 -42 2 -142 59 -178 101 -38 44 -73 123 -86 195 -5 23 -10 34
-14 25z"/>
<path d="M7276 5575 c-32 -178 -99 -264 -243 -310 -37 -12 -51 -20 -38 -23
141 -25 247 -130 270 -268 13 -75 18 -82 26 -34 14 87 49 163 99 211 48 48
135 88 188 90 20 0 12 5 -28 18 -75 24 -108 43 -154 88 -46 45 -82 118 -100
205 l-13 63 -7 -40z"/>
<path d="M2042 5578 c-22 -22 -7 -69 23 -68 5 0 2 5 -7 11 -24 14 -23 35 2 35
14 0 19 -5 15 -16 -4 -10 0 -8 13 5 11 11 17 24 14 29 -2 4 -8 2 -13 -5 -6
-11 -9 -10 -15 4 -7 20 -16 21 -32 5z m23 -8 c3 -5 1 -10 -4 -10 -6 0 -11 5
-11 10 0 6 2 10 4 10 3 0 8 -4 11 -10z"/>
<path d="M2958 5079 c-44 -25 -45 -88 -2 -108 29 -13 68 0 83 28 16 29 14 39
-14 66 -26 27 -40 30 -67 14z"/>
<path d="M4146 4938 c38 -40 290 -296 560 -568 270 -272 612 -618 759 -767
l268 -273 379 0 379 0 -17 29 c-43 73 -258 348 -379 486 -443 504 -903 827
-1445 1018 -169 59 -508 147 -567 147 -3 0 26 -33 63 -72z"/>
<path d="M3485 4753 c-104 -97 -255 -233 -335 -303 -80 -70 -167 -148 -195
-173 l-50 -46 416 -1 416 0 7 -92 c4 -51 10 -113 13 -137 l6 -43 -470 5 -471
5 -65 -137 c-76 -157 -127 -267 -278 -598 -44 -95 -79 -175 -79 -178 0 -3 78
-5 173 -5 l172 -1 44 -72 c24 -40 62 -103 84 -141 l39 -69 -43 -111 c-23 -61
-43 -112 -44 -114 -2 -3 -81 19 -196 55 -15 4 -13 18 16 130 l32 125 -86 -7
c-47 -4 -137 -12 -200 -19 l-114 -11 -109 -245 c-59 -135 -111 -253 -114 -262
-5 -17 49 -18 1035 -18 l1041 0 0 99 0 99 -72 -19 c-40 -10 -74 -19 -76 -19
-11 -1 33 62 51 72 31 18 368 158 378 158 5 0 9 -88 9 -195 l0 -195 1500 0
c825 0 1500 2 1500 3 0 9 -824 654 -941 737 -28 20 -29 20 -35 3 -3 -10 -30
-79 -60 -154 -30 -75 -54 -139 -54 -144 0 -4 39 -53 87 -109 48 -55 73 -89 57
-75 -16 14 -65 57 -110 97 -76 68 -84 72 -165 90 -46 11 -118 25 -159 32 -41
7 -78 16 -81 19 -4 3 10 77 31 164 25 107 33 156 24 153 -7 -3 -50 -28 -96
-57 -45 -29 -136 -85 -202 -125 l-119 -72 -36 15 c-20 8 -79 35 -131 60 -85
39 -93 46 -77 57 10 8 43 37 73 66 l56 53 -438 438 -439 439 -168 0 -168 0
-59 123 c-33 67 -60 125 -60 130 0 4 106 4 235 0 129 -3 235 -4 235 -1 0 6
-434 338 -530 406 -25 18 -79 57 -120 87 -41 30 -81 52 -88 50 -7 -3 -11 -1
-8 4 5 8 -107 96 -166 130 l-33 19 -190 -175z m1240 -1119 c61 -25 131 -54
157 -63 l46 -17 -31 -50 c-18 -27 -47 -68 -64 -89 -39 -47 -40 -58 -10 -99 13
-17 40 -56 62 -86 36 -51 32 -49 -51 35 l-89 90 -145 49 c-80 27 -162 56 -183
65 l-38 16 82 70 c46 39 96 82 113 97 17 15 33 28 36 28 3 0 55 -21 115 -46z
m-1050 -149 c263 -41 285 -45 285 -55 0 -4 -37 -81 -82 -171 -58 -116 -81
-174 -81 -199 1 -19 12 -98 26 -175 14 -77 24 -141 22 -143 -1 -1 -11 26 -23
60 -11 35 -35 102 -52 151 l-32 87 -41 0 c-23 0 -161 -5 -306 -11 -144 -6
-265 -8 -267 -6 -3 2 50 103 117 223 168 304 156 286 188 280 14 -3 125 -22
246 -41z m1387 -517 c40 -18 143 -67 228 -108 85 -42 174 -85 198 -95 23 -11
42 -21 42 -24 0 -3 -19 -17 -43 -29 -210 -116 -297 -162 -306 -162 -11 0 -365
231 -389 254 -11 10 5 30 83 104 54 51 101 92 106 92 5 0 41 -14 81 -32z"/>
<path d="M6734 4664 c-12 -23 -39 -51 -67 -69 -46 -30 -58 -45 -35 -45 26 0
79 -47 99 -88 l22 -44 17 39 c20 45 53 77 95 93 l30 12 -30 13 c-36 15 -85 65
-100 102 l-11 27 -20 -40z"/>
<path d="M7221 4424 c-13 -36 -80 -94 -110 -94 -9 -1 -2 -7 14 -14 43 -19 84
-60 102 -103 l16 -38 8 29 c10 37 74 102 108 111 l26 7 -30 15 c-42 22 -81 60
-95 94 -16 38 -23 37 -39 -7z"/>
<path d="M6405 4119 c-5 -6 -50 -48 -99 -93 l-89 -82 188 -199 c202 -215 244
-258 900 -930 237 -242 443 -453 458 -469 l29 -29 42 44 c23 24 68 72 100 106
l59 63 -49 52 c-43 48 -714 732 -1293 1320 -124 126 -227 228 -230 228 -3 -1
-10 -6 -16 -11z"/>
<path d="M7920 3450 c-10 -7 -12 -12 -4 -17 6 -5 14 -15 18 -23 3 -8 4 -3 1
13 -5 26 8 38 18 17 3 -6 4 -5 3 2 -3 16 -18 20 -36 8z"/>
<path d="M7891 3412 c-1 -33 17 -42 27 -12 3 7 0 10 -6 6 -6 -3 -12 4 -15 16
-3 16 -5 13 -6 -10z"/>
<path d="M7962 3413 c-11 -26 -11 -27 3 -9 10 13 15 15 15 6 0 -7 3 -11 6 -7
3 3 2 13 -3 22 -8 13 -11 12 -21 -12z"/>
<path d="M7931 3374 c0 -11 3 -14 6 -6 3 7 2 16 -1 19 -3 4 -6 -2 -5 -13z"/>
<path d="M7894 3145 c-4 -9 -2 -21 4 -27 16 -16 47 -5 47 17 0 26 -42 34 -51
10z"/>
</g>
</svg>
