<?xml version="1.0" standalone="no"?>
<!DOCTYPE svg PUBLIC "-//W3C//DTD SVG 20010904//EN"
 "http://www.w3.org/TR/2001/REC-SVG-20010904/DTD/svg10.dtd">
<svg version="1.0" xmlns="http://www.w3.org/2000/svg"
 width="35" height="35" viewBox="0 0 512.000000 512.000000"
 preserveAspectRatio="xMidYMid meet">

<g transform="translate(0.000000,512.000000) scale(0.100000,-0.100000)"
fill="#000000" stroke="none">
<path d="M2310 5104 c-14 -3 -77 -11 -140 -20 -235 -32 -499 -115 -735 -229
-664 -324 -1169 -941 -1350 -1649 -88 -345 -106 -680 -56 -1021 63 -423 232
-826 494 -1174 93 -123 285 -322 414 -428 622 -512 1446 -699 2233 -507 939
230 1680 988 1884 1929 28 128 56 329 56 398 l0 42 -1333 1333 -1332 1332 -55
-1 c-30 -1 -66 -3 -80 -5z m450 -845 c129 -35 224 -92 326 -194 77 -76 98
-105 137 -185 67 -136 82 -200 81 -350 0 -113 -3 -134 -31 -215 -41 -118 -90
-200 -171 -286 -87 -93 -189 -159 -310 -200 -90 -30 -107 -33 -227 -33 -109
-1 -142 3 -205 22 -136 43 -226 97 -325 197 -103 102 -158 196 -196 331 -29
102 -31 276 -5 373 81 299 316 512 621 562 75 12 221 2 305 -22z m86 -1610
c590 -98 1089 -534 1273 -1113 34 -106 74 -317 63 -327 -13 -11 -325 -69 -532
-99 -899 -128 -1858 -95 -2696 95 -21 5 -21 6 -7 92 95 601 512 1095 1090
1292 254 87 528 107 809 60z"/>
</g>
</svg>
