<?xml version="1.0" standalone="no"?>
<!DOCTYPE svg PUBLIC "-//W3C//DTD SVG 20010904//EN"
 "http://www.w3.org/TR/2001/REC-SVG-20010904/DTD/svg10.dtd">
<svg version="1.0" xmlns="http://www.w3.org/2000/svg"
 width="512.000000pt" height="512.000000pt" viewBox="0 0 512.000000 512.000000"
 preserveAspectRatio="xMidYMid meet">

<g transform="translate(0.000000,512.000000) scale(0.100000,-0.100000)"
fill="currentColor" stroke="none">
<path d="M2425 4959 c-289 -22 -574 -159 -770 -372 -448 -482 -431 -1220 38
-1674 246 -238 558 -357 890 -340 507 26 930 352 1085 837 43 136 56 237 49
409 -8 225 -60 396 -179 588 -66 107 -233 280 -338 350 -234 156 -493 224
-775 202z m301 -218 c185 -38 364 -134 497 -266 380 -377 396 -988 35 -1380
-119 -128 -251 -213 -419 -269 -473 -157 -977 53 -1201 499 -251 500 -37 1106
475 1345 75 35 198 72 272 83 84 12 256 6 341 -12z"/>
<path d="M2290 2255 c-569 -71 -1049 -372 -1367 -857 -196 -299 -323 -721
-323 -1074 0 -92 1 -97 29 -125 l29 -29 1869 0 1869 0 29 30 c28 29 28 31 26
137 -10 610 -300 1191 -773 1548 -394 298 -895 431 -1388 370z m351 -195 c304
-22 578 -112 814 -267 458 -302 736 -781 789 -1360 l6 -63 -1725 0 -1725 0 6
48 c24 217 48 333 101 487 226 653 806 1105 1483 1154 58 5 107 9 110 9 3 1
66 -3 141 -8z"/>
</g>
</svg>
