<?xml version="1.0" standalone="no"?>
<!DOCTYPE svg PUBLIC "-//W3C//DTD SVG 20010904//EN"
 "http://www.w3.org/TR/2001/REC-SVG-20010904/DTD/svg10.dtd">
<svg version="1.0" xmlns="http://www.w3.org/2000/svg"
 width="25" height="25" viewBox="0 0 512.000000 512.000000"
 preserveAspectRatio="xMidYMid meet">

<g transform="translate(0.000000,512.000000) scale(0.100000,-0.100000)"
fill="currentColor" stroke="none">
<path d="M2390 5110 c-557 -78 -1000 -446 -1169 -973 -57 -177 -63 -241 -68
-704 l-5 -423 -164 0 -164 0 -32 -29 -33 -29 -3 -321 -3 -321 -340 0 -341 0
-34 -34 -34 -34 0 -786 0 -786 29 -32 29 -33 346 -3 345 -3 3 -270 3 -271 33
-29 32 -29 1740 0 1740 0 32 29 33 29 3 271 3 270 345 3 346 3 29 33 29 32 0
786 0 786 -34 34 -34 34 -341 0 -340 0 -3 321 -3 321 -33 29 -32 29 -164 0
-164 0 -5 423 c-4 340 -8 441 -22 517 -104 577 -534 1021 -1103 1140 -111 24
-350 34 -452 20z m430 -219 c443 -101 795 -443 906 -878 35 -137 45 -307 42
-678 l-3 -320 -102 -3 -102 -3 -3 443 -4 443 -27 90 c-114 373 -401 635 -782
716 -33 7 -116 13 -185 13 -69 0 -152 -6 -185 -13 -386 -81 -665 -337 -782
-716 l-27 -90 -4 -443 -3 -443 -102 3 -102 3 -3 320 c-4 487 16 658 102 856
107 249 320 475 559 596 107 53 235 96 337 113 41 6 82 13 90 15 42 11 302 -6
380 -24z m-51 -401 c263 -74 468 -270 558 -535 l28 -80 3 -432 3 -433 -801 0
-801 0 3 433 c4 420 4 434 27 502 99 301 348 517 649 565 84 13 246 3 331 -20z
m1401 -1930 l0 -250 -1610 0 -1610 0 0 250 0 250 1610 0 1610 0 0 -250z m750
-1105 l0 -655 -2360 0 -2360 0 0 655 0 655 2360 0 2360 0 0 -655z m-750 -1055
l0 -200 -1610 0 -1610 0 0 200 0 200 1610 0 1610 0 0 -200z"/>
<path d="M863 1895 c-45 -19 -57 -48 -63 -158 l-5 -98 -80 51 c-110 70 -167
65 -202 -17 -23 -56 3 -95 107 -159 46 -29 86 -57 87 -61 2 -4 -37 -34 -86
-66 -118 -77 -139 -126 -82 -189 44 -49 89 -46 180 15 39 26 73 47 76 47 3 0
5 -36 5 -80 0 -100 17 -146 62 -164 42 -18 81 -10 113 21 24 24 25 32 25 129
0 57 3 104 8 104 4 0 43 -23 87 -50 44 -28 90 -50 103 -50 55 0 101 46 102
101 0 49 -19 70 -124 134 l-88 54 83 54 c46 30 92 63 102 75 41 46 14 135 -47
155 -37 12 -61 5 -141 -47 -39 -25 -73 -46 -77 -46 -5 0 -8 43 -8 95 0 108
-12 137 -62 154 -38 13 -36 13 -75 -4z"/>
<path d="M1958 1894 c-42 -22 -53 -51 -58 -157 l-5 -97 -80 50 c-111 69 -167
64 -202 -17 -23 -57 3 -96 107 -160 46 -28 86 -56 87 -60 2 -4 -36 -33 -83
-63 -119 -76 -142 -128 -85 -192 44 -49 89 -46 180 15 39 26 73 47 76 47 3 0
5 -38 5 -85 0 -100 16 -140 63 -160 43 -18 82 -9 112 27 23 27 25 38 25 129 0
54 3 99 8 99 4 0 43 -23 87 -50 83 -52 107 -58 150 -38 51 23 72 106 38 146
-10 12 -58 46 -106 76 l-88 55 84 55 c103 68 119 85 120 130 2 63 -59 117
-116 102 -13 -3 -54 -26 -92 -50 -39 -25 -73 -46 -77 -46 -5 0 -8 43 -8 95 0
108 -12 137 -62 154 -39 14 -47 13 -80 -5z"/>
<path d="M3064 1891 c-18 -11 -36 -25 -40 -33 -5 -7 -11 -59 -14 -116 l-5
-102 -80 50 c-96 59 -130 63 -177 21 -27 -24 -33 -36 -32 -70 2 -52 17 -69
121 -133 46 -28 83 -53 83 -57 0 -3 -41 -32 -90 -63 -91 -57 -110 -81 -110
-133 0 -14 13 -39 29 -57 43 -48 86 -45 178 15 39 26 74 47 77 47 3 0 6 -38 6
-85 0 -100 16 -140 63 -160 43 -18 82 -9 112 27 23 27 25 38 25 130 0 76 3 99
13 95 6 -3 46 -25 87 -51 41 -25 84 -46 97 -46 36 0 73 22 89 51 35 68 12 106
-104 179 l-94 58 91 61 c50 34 95 70 101 80 18 35 12 88 -14 118 -38 44 -94
39 -173 -15 -97 -66 -93 -68 -93 36 0 106 -10 135 -55 157 -42 19 -53 19 -91
-4z"/>
<path d="M4176 1895 c-50 -26 -55 -42 -56 -154 0 -78 -3 -102 -12 -98 -7 3
-47 25 -88 51 -80 49 -105 55 -150 31 -36 -19 -50 -43 -50 -87 1 -46 22 -68
120 -129 47 -28 86 -53 88 -54 1 -1 -33 -25 -76 -54 -122 -79 -144 -112 -119
-173 18 -42 37 -58 79 -64 28 -5 45 2 111 45 43 28 82 51 87 51 6 0 10 -42 10
-99 0 -92 2 -100 25 -124 32 -31 71 -39 112 -22 45 19 57 48 63 158 l5 98 75
-48 c114 -71 184 -64 209 24 15 53 -12 90 -109 151 -47 29 -86 56 -87 60 -2 4
37 33 86 65 121 79 141 129 77 193 -48 48 -77 45 -170 -16 -42 -27 -79 -50
-81 -50 -3 0 -5 36 -5 80 0 102 -17 146 -64 165 -43 18 -44 18 -80 0z"/>
</g>
</svg>
