<?xml version="1.0" standalone="no"?>
<!DOCTYPE svg PUBLIC "-//W3C//DTD SVG 20010904//EN"
 "http://www.w3.org/TR/2001/REC-SVG-20010904/DTD/svg10.dtd">
<svg version="1.0" xmlns="http://www.w3.org/2000/svg"
 width="512.000000pt" height="512.000000pt" viewBox="0 0 512.000000 512.000000"
 preserveAspectRatio="xMidYMid meet">

<g transform="translate(0.000000,512.000000) scale(0.100000,-0.100000)"
fill="currentColor" stroke="none">
<path d="M2510 3621 c-60 -19 -103 -58 -427 -383 -230 -231 -347 -355 -358
-380 -21 -52 -19 -131 4 -177 37 -71 115 -121 191 -121 80 0 95 12 373 288
l267 267 268 -267 c277 -276 292 -288 372 -288 78 0 159 53 191 125 23 49 24
123 4 173 -20 46 -682 714 -737 743 -44 23 -112 32 -148 20z"/>
<path d="M2480 2544 c-44 -19 -724 -694 -751 -746 -35 -69 -20 -179 34 -236
58 -63 173 -85 247 -48 19 10 151 133 293 274 l257 257 258 -257 c141 -141
273 -264 292 -274 86 -43 205 -10 264 74 40 57 48 149 18 208 -30 57 -707 729
-754 749 -47 19 -112 19 -158 -1z"/>
</g>
</svg>
