<?xml version="1.0" standalone="no"?>
<!DOCTYPE svg PUBLIC "-//W3C//DTD SVG 20010904//EN"
 "http://www.w3.org/TR/2001/REC-SVG-20010904/DTD/svg10.dtd">
<svg version="1.0" xmlns="http://www.w3.org/2000/svg"
 width="512.000000pt" height="512.000000pt" viewBox="0 0 512.000000 512.000000"
 preserveAspectRatio="xMidYMid meet">

<g transform="translate(0.000000,512.000000) scale(0.100000,-0.100000)"
fill="currentColor" stroke="none">
<path d="M1466 5109 c-550 -71 -999 -490 -1118 -1042 -31 -145 -31 -379 0
-524 117 -547 550 -955 1102 -1038 291 -45 613 21 865 175 252 154 448 388
547 650 l33 90 383 0 382 0 0 -211 c0 -213 4 -239 39 -266 23 -18 62 -16 92 5
81 55 993 810 1002 829 7 16 7 33 1 50 -8 24 -284 255 -877 734 -151 122 -179
136 -218 106 -35 -27 -39 -53 -39 -266 l0 -211 -383 0 -382 0 -19 53 c-91 260
-277 499 -507 652 -264 176 -591 254 -903 214z m344 -164 c244 -37 465 -148
640 -323 221 -222 340 -508 340 -817 0 -307 -121 -596 -340 -815 -130 -131
-278 -223 -450 -280 -541 -182 -1134 64 -1390 575 -33 66 -71 159 -85 208
-156 555 127 1145 659 1374 196 84 412 111 626 78z m2413 -839 c292 -238 365
-302 355 -312 -7 -7 -179 -148 -383 -313 l-370 -302 -6 183 c-3 101 -6 184 -7
185 -1 1 -15 9 -32 18 -25 13 -91 15 -439 15 l-410 0 7 33 c4 17 7 104 7 192
0 88 -3 175 -7 193 l-7 32 410 0 c431 0 456 2 473 45 3 9 6 93 6 186 0 163 1
170 18 157 10 -7 184 -148 385 -312z"/>
<path d="M1585 4775 c-23 -22 -25 -32 -25 -109 l0 -85 -57 -16 c-259 -74 -394
-347 -286 -577 55 -117 160 -208 282 -242 l61 -17 0 -265 c0 -295 4 -282 -70
-244 -47 24 -104 79 -126 121 -9 18 -20 59 -25 93 -9 70 -32 96 -83 96 -74 0
-96 -81 -55 -202 46 -137 157 -242 302 -283 l57 -16 0 -89 c0 -84 1 -90 26
-109 37 -29 70 -26 105 8 27 28 29 34 29 110 l0 80 43 12 c119 31 234 124 286
231 79 161 53 333 -71 464 -61 65 -116 99 -196 124 l-57 18 -3 266 c-1 182 1
266 8 266 18 0 85 -37 119 -66 42 -35 78 -108 87 -174 4 -30 15 -61 25 -71 21
-21 69 -25 99 -9 74 39 22 244 -90 358 -50 51 -167 117 -220 124 -24 3 -25 6
-30 92 -5 81 -8 90 -33 112 -36 31 -71 30 -102 -1z m-25 -620 c0 -284 3 -272
-68 -236 -46 24 -107 82 -128 124 -25 48 -30 148 -10 201 20 52 79 117 133
145 77 41 73 52 73 -234z m237 -475 c124 -71 172 -216 110 -336 -14 -28 -40
-63 -58 -78 -34 -29 -101 -66 -119 -66 -7 0 -10 85 -10 255 0 197 3 255 13
255 6 0 35 -14 64 -30z"/>
<path d="M3281 2614 c-456 -71 -856 -391 -1018 -815 l-38 -99 -382 0 -383 0 0
211 c0 213 -4 239 -39 266 -23 18 -62 16 -92 -5 -82 -55 -993 -810 -1002 -829
-7 -16 -7 -33 -1 -50 8 -24 284 -255 877 -734 151 -122 179 -136 218 -106 35
27 39 53 39 266 l0 211 383 0 382 0 33 -90 c153 -406 520 -717 962 -813 128
-28 385 -30 510 -4 279 59 519 192 708 391 175 185 288 407 339 663 25 132 23
367 -5 500 -148 691 -799 1143 -1491 1037z m354 -154 c536 -77 938 -493 996
-1031 54 -496 -244 -995 -706 -1180 -628 -251 -1323 65 -1535 699 -140 418
-33 871 279 1182 256 255 619 379 966 330z m-2327 -887 c1 -1 15 -9 32 -18 25
-13 91 -15 439 -15 l411 0 -8 -32 c-9 -43 -9 -343 0 -385 l7 -32 -424 -3
c-392 -3 -426 -4 -442 -21 -16 -15 -19 -42 -23 -197 l-5 -180 -101 82 c-55 46
-228 186 -383 313 -222 181 -279 232 -269 241 7 7 180 148 383 313 l370 302 6
-183 c3 -101 6 -184 7 -185z"/>
<path d="M3429 2281 c-27 -28 -29 -34 -29 -110 l0 -80 -42 -12 c-120 -31 -235
-124 -287 -231 -79 -161 -53 -333 71 -464 61 -65 116 -99 196 -124 l57 -18 3
-266 c1 -182 -1 -266 -8 -266 -18 0 -85 37 -119 66 -42 35 -78 108 -87 174 -8
62 -31 90 -75 90 -69 0 -94 -44 -79 -137 26 -158 147 -293 308 -343 l57 -18 5
-87 c5 -80 7 -89 33 -111 36 -31 71 -31 102 1 23 22 25 32 25 109 l0 85 61 17
c122 34 226 124 283 243 28 60 31 75 31 166 0 91 -3 106 -31 166 -57 119 -161
209 -283 243 l-61 17 0 265 c0 295 -4 282 70 244 46 -24 103 -78 124 -119 8
-16 20 -57 25 -92 12 -73 34 -99 85 -99 74 0 96 81 55 202 -25 75 -64 133
-126 188 -57 50 -98 72 -176 95 l-57 16 0 85 c0 77 -2 87 -25 109 -33 33 -70
32 -106 -4z m-29 -616 c0 -170 -3 -255 -10 -255 -18 0 -85 37 -119 66 -109 91
-111 276 -4 375 30 28 100 68 121 69 9 0 12 -57 12 -255z m230 -465 c47 -24
103 -78 127 -123 25 -45 25 -179 0 -224 -24 -45 -80 -99 -127 -123 -74 -38
-70 -50 -70 235 0 285 -4 273 70 235z"/>
</g>
</svg>
